<svg width="121" height="68" viewBox="0 0 121 68" fill="none" xmlns="http://www.w3.org/2000/svg">
<path d="M1.73864 35.6307V32.8182H21.375V35.6307H13.142V59H9.97159V35.6307H1.73864ZM25.859 59V39.3636H28.8761V59H25.859ZM27.3931 36.0909C26.805 36.0909 26.2979 35.8906 25.8718 35.4901C25.4542 35.0895 25.2454 34.608 25.2454 34.0455C25.2454 33.483 25.4542 33.0014 25.8718 32.6009C26.2979 32.2003 26.805 32 27.3931 32C27.9812 32 28.484 32.2003 28.9016 32.6009C29.3278 33.0014 29.5408 33.483 29.5408 34.0455C29.5408 34.608 29.3278 35.0895 28.9016 35.4901C28.484 35.8906 27.9812 36.0909 27.3931 36.0909ZM42.6349 59.4091C40.7429 59.4091 39.1108 58.9915 37.7386 58.1562C36.375 57.3125 35.3224 56.1364 34.581 54.6278C33.848 53.1108 33.4815 51.3466 33.4815 49.3352C33.4815 47.3239 33.848 45.5511 34.581 44.017C35.3224 42.4744 36.3537 41.2727 37.6747 40.4119C39.0043 39.5426 40.5554 39.108 42.3281 39.108C43.3509 39.108 44.3608 39.2784 45.358 39.6193C46.3551 39.9602 47.2628 40.5142 48.081 41.2812C48.8991 42.0398 49.5511 43.0455 50.0369 44.2983C50.5227 45.5511 50.7656 47.0937 50.7656 48.9261V50.2045H35.6293V47.5966H47.6974C47.6974 46.4886 47.4759 45.5 47.0327 44.6307C46.598 43.7614 45.9759 43.0753 45.1662 42.5724C44.3651 42.0696 43.419 41.8182 42.3281 41.8182C41.1264 41.8182 40.0866 42.1165 39.2088 42.7131C38.3395 43.3011 37.6705 44.0682 37.2017 45.0142C36.733 45.9602 36.4986 46.9744 36.4986 48.0568V49.7955C36.4986 51.2784 36.7543 52.5355 37.2656 53.5668C37.7855 54.5895 38.5057 55.3693 39.4261 55.9062C40.3466 56.4347 41.4162 56.6989 42.6349 56.6989C43.4276 56.6989 44.1435 56.5881 44.7827 56.3665C45.4304 56.1364 45.9886 55.7955 46.4574 55.3438C46.9261 54.8835 47.2884 54.3125 47.544 53.6307L50.4588 54.4489C50.152 55.4375 49.6364 56.3068 48.9119 57.0568C48.1875 57.7983 47.2926 58.3778 46.2273 58.7955C45.1619 59.2045 43.9645 59.4091 42.6349 59.4091ZM55.3551 59V39.3636H58.2699V42.3295H58.4744C58.8324 41.358 59.4801 40.5696 60.4176 39.9645C61.3551 39.3594 62.4119 39.0568 63.5881 39.0568C63.8097 39.0568 64.0866 39.0611 64.419 39.0696C64.7514 39.0781 65.0028 39.0909 65.1733 39.108V42.1761C65.071 42.1506 64.8366 42.1122 64.4702 42.0611C64.1122 42.0014 63.733 41.9716 63.3324 41.9716C62.3778 41.9716 61.5256 42.1719 60.7756 42.5724C60.0341 42.9645 59.446 43.5099 59.0114 44.2088C58.5852 44.8991 58.3722 45.6875 58.3722 46.5739V59H55.3551ZM76.1293 59.4091C74.3565 59.4091 72.8011 58.9872 71.4631 58.1435C70.1335 57.2997 69.0938 56.1193 68.3438 54.6023C67.6023 53.0852 67.2315 51.3125 67.2315 49.2841C67.2315 47.2386 67.6023 45.4531 68.3438 43.9276C69.0938 42.402 70.1335 41.2173 71.4631 40.3736C72.8011 39.5298 74.3565 39.108 76.1293 39.108C77.902 39.108 79.4531 39.5298 80.7827 40.3736C82.1207 41.2173 83.1605 42.402 83.902 43.9276C84.652 45.4531 85.027 47.2386 85.027 49.2841C85.027 51.3125 84.652 53.0852 83.902 54.6023C83.1605 56.1193 82.1207 57.2997 80.7827 58.1435C79.4531 58.9872 77.902 59.4091 76.1293 59.4091ZM76.1293 56.6989C77.4759 56.6989 78.5838 56.3537 79.4531 55.6634C80.3224 54.973 80.9659 54.0653 81.3835 52.9403C81.8011 51.8153 82.0099 50.5966 82.0099 49.2841C82.0099 47.9716 81.8011 46.7486 81.3835 45.6151C80.9659 44.4815 80.3224 43.5653 79.4531 42.8665C78.5838 42.1676 77.4759 41.8182 76.1293 41.8182C74.7827 41.8182 73.6747 42.1676 72.8054 42.8665C71.9361 43.5653 71.2926 44.4815 70.875 45.6151C70.4574 46.7486 70.2486 47.9716 70.2486 49.2841C70.2486 50.5966 70.4574 51.8153 70.875 52.9403C71.2926 54.0653 71.9361 54.973 72.8054 55.6634C73.6747 56.3537 74.7827 56.6989 76.1293 56.6989Z" fill="black"/>
<line y1="-0.5" x2="32.374" y2="-0.5" transform="matrix(0.668233 -0.743952 0.68463 0.728891 42.2952 34)" stroke="#20860F"/>
<line y1="-0.5" x2="9.92058" y2="-0.5" transform="matrix(0.628323 0.777952 -0.722356 0.691521 63.9286 9.91528)" stroke="#20860F"/>
<line y1="-0.5" x2="17.0819" y2="-0.5" transform="matrix(0.672575 -0.740029 0.68034 0.732896 70.1619 17.6331)" stroke="#20860F"/>
<line y1="-0.5" x2="7.78998" y2="-0.5" transform="matrix(-0.596207 -0.80283 0.750627 -0.660727 86.2952 11.246)" stroke="#20860F"/>
<line y1="-0.5" x2="15.0326" y2="-0.5" transform="matrix(0.731742 -0.681582 0.617884 0.786269 86.2952 11.246)" stroke="#20860F"/>
</svg>
